<svg xmlns="http://www.w3.org/2000/svg" width="20" height="14.37" viewBox="0 0 20 14.37">
  <path id="note-3" d="M20,42.406a1.02,1.02,0,0,0-1.02-1.02H1.02A1.02,1.02,0,0,0,0,42.406v12.33a1.02,1.02,0,0,0,1.02,1.02H18.98A1.02,1.02,0,0,0,20,54.736Zm-2.04,2.078a1.025,1.025,0,0,1-.36.78L13.687,48.6,17.6,51.93a1.014,1.014,0,0,1-.657,1.786h-.009a1.043,1.043,0,0,1-.676-.249l-4.148-3.532-1.452,1.236a1.02,1.02,0,0,1-1.323,0L7.887,49.935,3.746,53.461a1.067,1.067,0,0,1-.692.255A1.014,1.014,0,0,1,2.4,51.93L6.313,48.6,2.455,45.31a1.179,1.179,0,0,1-.414-.9.987.987,0,0,1,1.626-.751L9.678,48.78a.5.5,0,0,0,.645,0l6.011-5.118a.986.986,0,0,1,1.626.751v.071Z" transform="translate(0 -41.386)" fill="#fff"/>
</svg>
